<mxfile host="app.diagrams.net" modified="2024-05-27T08:08:44.240Z" agent="Mozilla/5.0 (Windows NT 10.0; Win64; x64; rv:126.0) Gecko/20100101 Firefox/126.0" etag="i8_KJTd_77GwZnPtmf2Z" version="24.4.8" type="github">
  <diagram id="C5RBs43oDa-KdzZeNtuy" name="Page-1">
    <mxGraphModel dx="1434" dy="782" grid="1" gridSize="10" guides="1" tooltips="1" connect="1" arrows="1" fold="1" page="1" pageScale="1" pageWidth="827" pageHeight="1169" math="0" shadow="0">
      <root>
        <mxCell id="WIyWlLk6GJQsqaUBKTNV-0" />
        <mxCell id="WIyWlLk6GJQsqaUBKTNV-1" parent="WIyWlLk6GJQsqaUBKTNV-0" />
        <mxCell id="ewwfG6E6U46UfBEFojld-18" style="edgeStyle=orthogonalEdgeStyle;rounded=0;orthogonalLoop=1;jettySize=auto;html=1;entryX=0;entryY=0.5;entryDx=0;entryDy=0;" edge="1" parent="WIyWlLk6GJQsqaUBKTNV-1" source="ewwfG6E6U46UfBEFojld-0" target="ewwfG6E6U46UfBEFojld-2">
          <mxGeometry relative="1" as="geometry" />
        </mxCell>
        <mxCell id="ewwfG6E6U46UfBEFojld-19" style="edgeStyle=orthogonalEdgeStyle;rounded=0;orthogonalLoop=1;jettySize=auto;html=1;entryX=0;entryY=0.5;entryDx=0;entryDy=0;" edge="1" parent="WIyWlLk6GJQsqaUBKTNV-1" source="ewwfG6E6U46UfBEFojld-0" target="ewwfG6E6U46UfBEFojld-3">
          <mxGeometry relative="1" as="geometry" />
        </mxCell>
        <mxCell id="ewwfG6E6U46UfBEFojld-20" style="edgeStyle=orthogonalEdgeStyle;rounded=0;orthogonalLoop=1;jettySize=auto;html=1;entryX=0;entryY=0.5;entryDx=0;entryDy=0;" edge="1" parent="WIyWlLk6GJQsqaUBKTNV-1" source="ewwfG6E6U46UfBEFojld-0" target="ewwfG6E6U46UfBEFojld-4">
          <mxGeometry relative="1" as="geometry" />
        </mxCell>
        <mxCell id="ewwfG6E6U46UfBEFojld-21" style="edgeStyle=orthogonalEdgeStyle;rounded=0;orthogonalLoop=1;jettySize=auto;html=1;entryX=0;entryY=0.5;entryDx=0;entryDy=0;" edge="1" parent="WIyWlLk6GJQsqaUBKTNV-1" source="ewwfG6E6U46UfBEFojld-0" target="ewwfG6E6U46UfBEFojld-6">
          <mxGeometry relative="1" as="geometry" />
        </mxCell>
        <mxCell id="ewwfG6E6U46UfBEFojld-22" style="edgeStyle=orthogonalEdgeStyle;rounded=0;orthogonalLoop=1;jettySize=auto;html=1;entryX=0;entryY=0.5;entryDx=0;entryDy=0;" edge="1" parent="WIyWlLk6GJQsqaUBKTNV-1" source="ewwfG6E6U46UfBEFojld-0" target="ewwfG6E6U46UfBEFojld-5">
          <mxGeometry relative="1" as="geometry" />
        </mxCell>
        <mxCell id="ewwfG6E6U46UfBEFojld-23" style="edgeStyle=orthogonalEdgeStyle;rounded=0;orthogonalLoop=1;jettySize=auto;html=1;entryX=0;entryY=0.5;entryDx=0;entryDy=0;" edge="1" parent="WIyWlLk6GJQsqaUBKTNV-1" source="ewwfG6E6U46UfBEFojld-0" target="ewwfG6E6U46UfBEFojld-7">
          <mxGeometry relative="1" as="geometry" />
        </mxCell>
        <mxCell id="ewwfG6E6U46UfBEFojld-33" style="edgeStyle=orthogonalEdgeStyle;rounded=0;orthogonalLoop=1;jettySize=auto;html=1;entryX=0;entryY=0.5;entryDx=0;entryDy=0;" edge="1" parent="WIyWlLk6GJQsqaUBKTNV-1" source="ewwfG6E6U46UfBEFojld-0" target="ewwfG6E6U46UfBEFojld-30">
          <mxGeometry relative="1" as="geometry" />
        </mxCell>
        <mxCell id="ewwfG6E6U46UfBEFojld-34" style="edgeStyle=orthogonalEdgeStyle;rounded=0;orthogonalLoop=1;jettySize=auto;html=1;entryX=0;entryY=0.5;entryDx=0;entryDy=0;" edge="1" parent="WIyWlLk6GJQsqaUBKTNV-1" source="ewwfG6E6U46UfBEFojld-0" target="ewwfG6E6U46UfBEFojld-31">
          <mxGeometry relative="1" as="geometry" />
        </mxCell>
        <mxCell id="ewwfG6E6U46UfBEFojld-36" style="edgeStyle=orthogonalEdgeStyle;rounded=0;orthogonalLoop=1;jettySize=auto;html=1;entryX=1;entryY=0.5;entryDx=0;entryDy=0;" edge="1" parent="WIyWlLk6GJQsqaUBKTNV-1" source="ewwfG6E6U46UfBEFojld-0" target="ewwfG6E6U46UfBEFojld-24">
          <mxGeometry relative="1" as="geometry" />
        </mxCell>
        <mxCell id="ewwfG6E6U46UfBEFojld-37" style="edgeStyle=orthogonalEdgeStyle;rounded=0;orthogonalLoop=1;jettySize=auto;html=1;entryX=1;entryY=0.5;entryDx=0;entryDy=0;" edge="1" parent="WIyWlLk6GJQsqaUBKTNV-1" source="ewwfG6E6U46UfBEFojld-0" target="ewwfG6E6U46UfBEFojld-25">
          <mxGeometry relative="1" as="geometry" />
        </mxCell>
        <mxCell id="ewwfG6E6U46UfBEFojld-38" style="edgeStyle=orthogonalEdgeStyle;rounded=0;orthogonalLoop=1;jettySize=auto;html=1;entryX=1;entryY=0.5;entryDx=0;entryDy=0;" edge="1" parent="WIyWlLk6GJQsqaUBKTNV-1" source="ewwfG6E6U46UfBEFojld-0" target="ewwfG6E6U46UfBEFojld-26">
          <mxGeometry relative="1" as="geometry" />
        </mxCell>
        <mxCell id="ewwfG6E6U46UfBEFojld-0" value="&lt;br&gt;&lt;div style=&quot;color: #d4d4d4;background-color: #1e1e1e;font-family: &#39;Fira Code&#39;, Consolas, &#39;Courier New&#39;, monospace;font-weight: normal;font-size: 13px;line-height: 18px;white-space: pre;&quot;&gt;&lt;div&gt;&lt;span style=&quot;color: #4ec9b0;&quot;&gt;Memory&lt;/span&gt;&lt;/div&gt;&lt;/div&gt;" style="rounded=1;whiteSpace=wrap;html=1;" vertex="1" parent="WIyWlLk6GJQsqaUBKTNV-1">
          <mxGeometry x="414" y="70" width="120" height="60" as="geometry" />
        </mxCell>
        <mxCell id="ewwfG6E6U46UfBEFojld-2" value="&lt;br&gt;&lt;div style=&quot;color: #d4d4d4;background-color: #1e1e1e;font-family: &#39;Fira Code&#39;, Consolas, &#39;Courier New&#39;, monospace;font-weight: normal;font-size: 13px;line-height: 18px;white-space: pre;&quot;&gt;&lt;div&gt;&lt;span style=&quot;color: #dcdcaa;&quot;&gt;store&lt;/span&gt;&lt;/div&gt;&lt;/div&gt;" style="rhombus;whiteSpace=wrap;html=1;" vertex="1" parent="WIyWlLk6GJQsqaUBKTNV-1">
          <mxGeometry x="120" y="120" width="150" height="80" as="geometry" />
        </mxCell>
        <mxCell id="ewwfG6E6U46UfBEFojld-3" value="&lt;br&gt;&lt;div style=&quot;color: #d4d4d4;background-color: #1e1e1e;font-family: &#39;Fira Code&#39;, Consolas, &#39;Courier New&#39;, monospace;font-weight: normal;font-size: 13px;line-height: 18px;white-space: pre;&quot;&gt;&lt;div&gt;&lt;span style=&quot;color: #dcdcaa;&quot;&gt;retrieve&lt;/span&gt;&lt;/div&gt;&lt;/div&gt;" style="rhombus;whiteSpace=wrap;html=1;" vertex="1" parent="WIyWlLk6GJQsqaUBKTNV-1">
          <mxGeometry x="120" y="210" width="150" height="80" as="geometry" />
        </mxCell>
        <mxCell id="ewwfG6E6U46UfBEFojld-4" value="&lt;br&gt;&lt;div style=&quot;color: #d4d4d4;background-color: #1e1e1e;font-family: &#39;Fira Code&#39;, Consolas, &#39;Courier New&#39;, monospace;font-weight: normal;font-size: 13px;line-height: 18px;white-space: pre;&quot;&gt;&lt;div&gt;&lt;div style=&quot;color: #d4d4d4;background-color: #1e1e1e;font-family: &#39;Fira Code&#39;, Consolas, &#39;Courier New&#39;, monospace;font-weight: normal;font-size: 13px;line-height: 18px;white-space: pre;&quot;&gt;&lt;div&gt;&lt;span style=&quot;color: #dcdcaa;&quot;&gt;read&lt;/span&gt;&lt;/div&gt;&lt;/div&gt;&lt;/div&gt;&lt;/div&gt;" style="rhombus;whiteSpace=wrap;html=1;" vertex="1" parent="WIyWlLk6GJQsqaUBKTNV-1">
          <mxGeometry x="120" y="300" width="150" height="80" as="geometry" />
        </mxCell>
        <mxCell id="ewwfG6E6U46UfBEFojld-5" value="&lt;br&gt;&lt;div style=&quot;color: #d4d4d4;background-color: #1e1e1e;font-family: &#39;Fira Code&#39;, Consolas, &#39;Courier New&#39;, monospace;font-weight: normal;font-size: 13px;line-height: 18px;white-space: pre;&quot;&gt;&lt;div&gt;&lt;div style=&quot;color: #d4d4d4;background-color: #1e1e1e;font-family: &#39;Fira Code&#39;, Consolas, &#39;Courier New&#39;, monospace;font-weight: normal;font-size: 13px;line-height: 18px;white-space: pre;&quot;&gt;&lt;div&gt;&lt;span style=&quot;color: #dcdcaa;&quot;&gt;write&lt;/span&gt;&lt;/div&gt;&lt;/div&gt;&lt;/div&gt;&lt;/div&gt;" style="rhombus;whiteSpace=wrap;html=1;" vertex="1" parent="WIyWlLk6GJQsqaUBKTNV-1">
          <mxGeometry x="120" y="480" width="150" height="80" as="geometry" />
        </mxCell>
        <mxCell id="ewwfG6E6U46UfBEFojld-6" value="&lt;div style=&quot;color: #d4d4d4;background-color: #1e1e1e;font-family: &#39;Fira Code&#39;, Consolas, &#39;Courier New&#39;, monospace;font-weight: normal;font-size: 13px;line-height: 18px;white-space: pre;&quot;&gt;&lt;div&gt;&lt;span style=&quot;color: #dcdcaa;&quot;&gt;readFrom&lt;/span&gt;&lt;/div&gt;&lt;/div&gt;" style="rhombus;whiteSpace=wrap;html=1;" vertex="1" parent="WIyWlLk6GJQsqaUBKTNV-1">
          <mxGeometry x="120" y="390" width="150" height="80" as="geometry" />
        </mxCell>
        <mxCell id="ewwfG6E6U46UfBEFojld-7" value="&lt;div style=&quot;color: #d4d4d4;background-color: #1e1e1e;font-family: &#39;Fira Code&#39;, Consolas, &#39;Courier New&#39;, monospace;font-weight: normal;font-size: 13px;line-height: 18px;white-space: pre;&quot;&gt;&lt;div&gt;&lt;span style=&quot;color: #dcdcaa;&quot;&gt;set&lt;/span&gt;&lt;/div&gt;&lt;/div&gt;" style="rhombus;whiteSpace=wrap;html=1;" vertex="1" parent="WIyWlLk6GJQsqaUBKTNV-1">
          <mxGeometry x="120" y="570" width="150" height="80" as="geometry" />
        </mxCell>
        <mxCell id="ewwfG6E6U46UfBEFojld-10" value="" style="endArrow=none;html=1;rounded=0;entryX=0.5;entryY=1;entryDx=0;entryDy=0;exitX=0.5;exitY=0;exitDx=0;exitDy=0;" edge="1" parent="WIyWlLk6GJQsqaUBKTNV-1" source="ewwfG6E6U46UfBEFojld-6" target="ewwfG6E6U46UfBEFojld-4">
          <mxGeometry width="50" height="50" relative="1" as="geometry">
            <mxPoint x="121" y="570" as="sourcePoint" />
            <mxPoint x="171" y="520" as="targetPoint" />
          </mxGeometry>
        </mxCell>
        <mxCell id="ewwfG6E6U46UfBEFojld-11" value="" style="endArrow=none;html=1;rounded=0;exitX=0.5;exitY=1;exitDx=0;exitDy=0;entryX=0.5;entryY=0;entryDx=0;entryDy=0;" edge="1" parent="WIyWlLk6GJQsqaUBKTNV-1" source="ewwfG6E6U46UfBEFojld-2" target="ewwfG6E6U46UfBEFojld-3">
          <mxGeometry width="50" height="50" relative="1" as="geometry">
            <mxPoint x="340" y="390" as="sourcePoint" />
            <mxPoint x="390" y="340" as="targetPoint" />
          </mxGeometry>
        </mxCell>
        <mxCell id="ewwfG6E6U46UfBEFojld-12" value="" style="endArrow=none;html=1;rounded=0;entryX=0.5;entryY=1;entryDx=0;entryDy=0;exitX=0.5;exitY=0;exitDx=0;exitDy=0;" edge="1" parent="WIyWlLk6GJQsqaUBKTNV-1" source="ewwfG6E6U46UfBEFojld-7" target="ewwfG6E6U46UfBEFojld-5">
          <mxGeometry width="50" height="50" relative="1" as="geometry">
            <mxPoint x="-100" y="750" as="sourcePoint" />
            <mxPoint x="-50" y="700" as="targetPoint" />
          </mxGeometry>
        </mxCell>
        <mxCell id="ewwfG6E6U46UfBEFojld-24" value="&#xa;&lt;div style=&quot;color: #d4d4d4;background-color: #1e1e1e;font-family: &#39;Fira Code&#39;, Consolas, &#39;Courier New&#39;, monospace;font-weight: normal;font-size: 13px;line-height: 18px;white-space: pre;&quot;&gt;&lt;div&gt;&lt;span style=&quot;color: #dcdcaa;&quot;&gt;allocate&lt;/span&gt;&lt;/div&gt;&lt;/div&gt;&#xa;&#xa;" style="rounded=0;whiteSpace=wrap;html=1;" vertex="1" parent="WIyWlLk6GJQsqaUBKTNV-1">
          <mxGeometry x="650" y="119" width="120" height="60" as="geometry" />
        </mxCell>
        <mxCell id="ewwfG6E6U46UfBEFojld-25" value="&#xa;&lt;div style=&quot;color: #d4d4d4;background-color: #1e1e1e;font-family: &#39;Fira Code&#39;, Consolas, &#39;Courier New&#39;, monospace;font-weight: normal;font-size: 13px;line-height: 18px;white-space: pre;&quot;&gt;&lt;div&gt;&lt;span style=&quot;color: #dcdcaa;&quot;&gt;free&lt;/span&gt;&lt;/div&gt;&lt;/div&gt;&#xa;&#xa;" style="rounded=0;whiteSpace=wrap;html=1;" vertex="1" parent="WIyWlLk6GJQsqaUBKTNV-1">
          <mxGeometry x="650" y="189" width="120" height="60" as="geometry" />
        </mxCell>
        <mxCell id="ewwfG6E6U46UfBEFojld-26" value="&#xa;&lt;div style=&quot;color: #d4d4d4;background-color: #1e1e1e;font-family: &#39;Fira Code&#39;, Consolas, &#39;Courier New&#39;, monospace;font-weight: normal;font-size: 13px;line-height: 18px;white-space: pre;&quot;&gt;&lt;div&gt;&lt;span style=&quot;color: #dcdcaa;&quot;&gt;sizeOf&lt;/span&gt;&lt;/div&gt;&lt;/div&gt;&#xa;&#xa;" style="rounded=0;whiteSpace=wrap;html=1;" vertex="1" parent="WIyWlLk6GJQsqaUBKTNV-1">
          <mxGeometry x="650" y="259" width="120" height="60" as="geometry" />
        </mxCell>
        <mxCell id="ewwfG6E6U46UfBEFojld-30" value="&lt;div style=&quot;color: #d4d4d4;background-color: #1e1e1e;font-family: &#39;Fira Code&#39;, Consolas, &#39;Courier New&#39;, monospace;font-weight: normal;font-size: 13px;line-height: 18px;white-space: pre;&quot;&gt;&lt;div&gt;&lt;span style=&quot;color: #dcdcaa;&quot;&gt;getTypeInformation&lt;/span&gt;&lt;/div&gt;&lt;/div&gt;" style="rhombus;whiteSpace=wrap;html=1;" vertex="1" parent="WIyWlLk6GJQsqaUBKTNV-1">
          <mxGeometry x="120" y="660" width="150" height="80" as="geometry" />
        </mxCell>
        <mxCell id="ewwfG6E6U46UfBEFojld-31" value="&lt;div style=&quot;color: #d4d4d4;background-color: #1e1e1e;font-family: &#39;Fira Code&#39;, Consolas, &#39;Courier New&#39;, monospace;font-weight: normal;font-size: 13px;line-height: 18px;white-space: pre;&quot;&gt;&lt;div&gt;&lt;span style=&quot;color: #dcdcaa;&quot;&gt;getTypeName&lt;/span&gt;&lt;/div&gt;&lt;/div&gt;" style="rhombus;whiteSpace=wrap;html=1;" vertex="1" parent="WIyWlLk6GJQsqaUBKTNV-1">
          <mxGeometry x="120" y="750" width="150" height="80" as="geometry" />
        </mxCell>
        <mxCell id="ewwfG6E6U46UfBEFojld-32" value="" style="endArrow=none;html=1;rounded=0;entryX=0.5;entryY=1;entryDx=0;entryDy=0;exitX=0.5;exitY=0;exitDx=0;exitDy=0;" edge="1" parent="WIyWlLk6GJQsqaUBKTNV-1" source="ewwfG6E6U46UfBEFojld-31" target="ewwfG6E6U46UfBEFojld-30">
          <mxGeometry width="50" height="50" relative="1" as="geometry">
            <mxPoint x="-100" y="930" as="sourcePoint" />
            <mxPoint x="-50" y="880" as="targetPoint" />
          </mxGeometry>
        </mxCell>
        <mxCell id="ewwfG6E6U46UfBEFojld-50" value="" style="edgeStyle=orthogonalEdgeStyle;rounded=0;orthogonalLoop=1;jettySize=auto;html=1;entryX=0;entryY=0.5;entryDx=0;entryDy=0;" edge="1" parent="WIyWlLk6GJQsqaUBKTNV-1" source="ewwfG6E6U46UfBEFojld-39" target="ewwfG6E6U46UfBEFojld-48">
          <mxGeometry relative="1" as="geometry" />
        </mxCell>
        <mxCell id="ewwfG6E6U46UfBEFojld-54" value="" style="edgeStyle=orthogonalEdgeStyle;rounded=0;orthogonalLoop=1;jettySize=auto;html=1;" edge="1" parent="WIyWlLk6GJQsqaUBKTNV-1" source="ewwfG6E6U46UfBEFojld-39" target="ewwfG6E6U46UfBEFojld-49">
          <mxGeometry relative="1" as="geometry" />
        </mxCell>
        <mxCell id="ewwfG6E6U46UfBEFojld-39" value="&#xa;&lt;div style=&quot;color: #d4d4d4;background-color: #1e1e1e;font-family: &#39;Fira Code&#39;, Consolas, &#39;Courier New&#39;, monospace;font-weight: normal;font-size: 13px;line-height: 18px;white-space: pre;&quot;&gt;&lt;div&gt;&lt;span style=&quot;color: #4ec9b0;&quot;&gt;Storage&lt;/span&gt;&lt;/div&gt;&lt;/div&gt;&#xa;&#xa;" style="rounded=1;whiteSpace=wrap;html=1;" vertex="1" parent="WIyWlLk6GJQsqaUBKTNV-1">
          <mxGeometry x="500" y="434" width="120" height="60" as="geometry" />
        </mxCell>
        <mxCell id="ewwfG6E6U46UfBEFojld-40" value="&#xa;&lt;div style=&quot;color: #d4d4d4;background-color: #1e1e1e;font-family: &#39;Fira Code&#39;, Consolas, &#39;Courier New&#39;, monospace;font-weight: normal;font-size: 13px;line-height: 18px;white-space: pre;&quot;&gt;&lt;div&gt;&lt;span style=&quot;color: #4ec9b0;&quot;&gt;Referrer&lt;/span&gt;&lt;/div&gt;&lt;/div&gt;&#xa;&#xa;" style="rounded=1;whiteSpace=wrap;html=1;" vertex="1" parent="WIyWlLk6GJQsqaUBKTNV-1">
          <mxGeometry x="500" y="504" width="120" height="60" as="geometry" />
        </mxCell>
        <mxCell id="ewwfG6E6U46UfBEFojld-41" value="&#xa;&lt;div style=&quot;color: #d4d4d4;background-color: #1e1e1e;font-family: &#39;Fira Code&#39;, Consolas, &#39;Courier New&#39;, monospace;font-weight: normal;font-size: 13px;line-height: 18px;white-space: pre;&quot;&gt;&lt;div&gt;&lt;span style=&quot;color: #4ec9b0;&quot;&gt;ExtTree&lt;/span&gt;&lt;/div&gt;&lt;/div&gt;&#xa;&#xa;" style="rounded=1;whiteSpace=wrap;html=1;" vertex="1" parent="WIyWlLk6GJQsqaUBKTNV-1">
          <mxGeometry x="650" y="574" width="120" height="60" as="geometry" />
        </mxCell>
        <mxCell id="ewwfG6E6U46UfBEFojld-42" value="&#xa;&lt;div style=&quot;color: #d4d4d4;background-color: #1e1e1e;font-family: &#39;Fira Code&#39;, Consolas, &#39;Courier New&#39;, monospace;font-weight: normal;font-size: 13px;line-height: 18px;white-space: pre;&quot;&gt;&lt;div&gt;&lt;span style=&quot;color: #4ec9b0;&quot;&gt;ConstantPool&lt;/span&gt;&lt;/div&gt;&lt;/div&gt;&#xa;&#xa;" style="rounded=1;whiteSpace=wrap;html=1;" vertex="1" parent="WIyWlLk6GJQsqaUBKTNV-1">
          <mxGeometry x="500" y="644" width="120" height="60" as="geometry" />
        </mxCell>
        <mxCell id="ewwfG6E6U46UfBEFojld-43" value="&#xa;&lt;div style=&quot;color: #d4d4d4;background-color: #1e1e1e;font-family: &#39;Fira Code&#39;, Consolas, &#39;Courier New&#39;, monospace;font-weight: normal;font-size: 13px;line-height: 18px;white-space: pre;&quot;&gt;&lt;div&gt;&lt;span style=&quot;color: #4ec9b0;&quot;&gt;Operators&lt;/span&gt;&lt;/div&gt;&lt;/div&gt;&#xa;&#xa;" style="rounded=1;whiteSpace=wrap;html=1;" vertex="1" parent="WIyWlLk6GJQsqaUBKTNV-1">
          <mxGeometry x="500" y="740" width="120" height="60" as="geometry" />
        </mxCell>
        <mxCell id="ewwfG6E6U46UfBEFojld-45" value="" style="curved=1;endArrow=classic;html=1;rounded=0;exitX=1;exitY=0.5;exitDx=0;exitDy=0;entryX=1;entryY=0.5;entryDx=0;entryDy=0;" edge="1" parent="WIyWlLk6GJQsqaUBKTNV-1" source="ewwfG6E6U46UfBEFojld-7" target="ewwfG6E6U46UfBEFojld-30">
          <mxGeometry width="50" height="50" relative="1" as="geometry">
            <mxPoint x="260" y="580" as="sourcePoint" />
            <mxPoint x="260" y="530" as="targetPoint" />
            <Array as="points">
              <mxPoint x="320" y="650" />
            </Array>
          </mxGeometry>
        </mxCell>
        <mxCell id="ewwfG6E6U46UfBEFojld-46" value="" style="curved=1;endArrow=classic;html=1;rounded=0;entryX=1;entryY=0.5;entryDx=0;entryDy=0;" edge="1" parent="WIyWlLk6GJQsqaUBKTNV-1" target="ewwfG6E6U46UfBEFojld-31">
          <mxGeometry width="50" height="50" relative="1" as="geometry">
            <mxPoint x="270" y="610" as="sourcePoint" />
            <mxPoint x="300" y="570" as="targetPoint" />
            <Array as="points">
              <mxPoint x="350" y="690" />
            </Array>
          </mxGeometry>
        </mxCell>
        <mxCell id="ewwfG6E6U46UfBEFojld-47" value="" style="curved=1;endArrow=classic;html=1;rounded=0;exitX=1;exitY=0.5;exitDx=0;exitDy=0;entryX=1;entryY=0.5;entryDx=0;entryDy=0;" edge="1" parent="WIyWlLk6GJQsqaUBKTNV-1" source="ewwfG6E6U46UfBEFojld-7" target="ewwfG6E6U46UfBEFojld-3">
          <mxGeometry width="50" height="50" relative="1" as="geometry">
            <mxPoint x="280" y="605" as="sourcePoint" />
            <mxPoint x="280" y="555" as="targetPoint" />
            <Array as="points">
              <mxPoint x="350" y="420" />
            </Array>
          </mxGeometry>
        </mxCell>
        <mxCell id="ewwfG6E6U46UfBEFojld-48" value="&#xa;&lt;div style=&quot;color: #d4d4d4;background-color: #1e1e1e;font-family: &#39;Fira Code&#39;, Consolas, &#39;Courier New&#39;, monospace;font-weight: normal;font-size: 13px;line-height: 18px;white-space: pre;&quot;&gt;&lt;div&gt;&lt;span style=&quot;color: #4ec9b0;&quot;&gt;ByteCode&lt;/span&gt;&lt;/div&gt;&lt;/div&gt;&#xa;&#xa;" style="rounded=1;whiteSpace=wrap;html=1;" vertex="1" parent="WIyWlLk6GJQsqaUBKTNV-1">
          <mxGeometry x="650" y="404" width="120" height="60" as="geometry" />
        </mxCell>
        <mxCell id="ewwfG6E6U46UfBEFojld-49" value="&lt;div style=&quot;color: #d4d4d4;background-color: #1e1e1e;font-family: &#39;Fira Code&#39;, Consolas, &#39;Courier New&#39;, monospace;font-weight: normal;font-size: 13px;line-height: 18px;white-space: pre;&quot;&gt;&lt;div&gt;&lt;span style=&quot;color: #4ec9b0;&quot;&gt;HashTables&lt;/span&gt;&lt;/div&gt;&lt;/div&gt;" style="rounded=1;whiteSpace=wrap;html=1;" vertex="1" parent="WIyWlLk6GJQsqaUBKTNV-1">
          <mxGeometry x="500" y="344" width="120" height="60" as="geometry" />
        </mxCell>
        <mxCell id="ewwfG6E6U46UfBEFojld-53" value="" style="edgeStyle=orthogonalEdgeStyle;rounded=0;orthogonalLoop=1;jettySize=auto;html=1;" edge="1" parent="WIyWlLk6GJQsqaUBKTNV-1" source="ewwfG6E6U46UfBEFojld-52" target="ewwfG6E6U46UfBEFojld-41">
          <mxGeometry relative="1" as="geometry" />
        </mxCell>
        <mxCell id="ewwfG6E6U46UfBEFojld-52" value="&lt;br&gt;&lt;div style=&quot;color: #d4d4d4;background-color: #1e1e1e;font-family: &#39;Fira Code&#39;, Consolas, &#39;Courier New&#39;, monospace;font-weight: normal;font-size: 13px;line-height: 18px;white-space: pre;&quot;&gt;&lt;div&gt;&lt;span style=&quot;color: #4ec9b0;&quot;&gt;External&lt;/span&gt;&lt;/div&gt;&lt;div&gt;&lt;span style=&quot;color: #4ec9b0;&quot;&gt;Interfacing&lt;/span&gt;&lt;/div&gt;&lt;/div&gt;&lt;div&gt;&lt;br/&gt;&lt;/div&gt;" style="rounded=1;whiteSpace=wrap;html=1;" vertex="1" parent="WIyWlLk6GJQsqaUBKTNV-1">
          <mxGeometry x="500" y="574" width="120" height="60" as="geometry" />
        </mxCell>
        <mxCell id="ewwfG6E6U46UfBEFojld-55" value="" style="endArrow=none;dashed=1;html=1;rounded=0;exitX=1;exitY=0.5;exitDx=0;exitDy=0;entryX=0;entryY=0.5;entryDx=0;entryDy=0;" edge="1" parent="WIyWlLk6GJQsqaUBKTNV-1" source="ewwfG6E6U46UfBEFojld-5" target="ewwfG6E6U46UfBEFojld-49">
          <mxGeometry width="50" height="50" relative="1" as="geometry">
            <mxPoint x="370" y="660" as="sourcePoint" />
            <mxPoint x="420" y="610" as="targetPoint" />
          </mxGeometry>
        </mxCell>
        <mxCell id="ewwfG6E6U46UfBEFojld-56" value="" style="endArrow=none;dashed=1;html=1;rounded=0;exitX=1;exitY=0.5;exitDx=0;exitDy=0;entryX=0;entryY=0.5;entryDx=0;entryDy=0;" edge="1" parent="WIyWlLk6GJQsqaUBKTNV-1" source="ewwfG6E6U46UfBEFojld-7" target="ewwfG6E6U46UfBEFojld-40">
          <mxGeometry width="50" height="50" relative="1" as="geometry">
            <mxPoint x="320" y="640" as="sourcePoint" />
            <mxPoint x="370" y="590" as="targetPoint" />
          </mxGeometry>
        </mxCell>
        <mxCell id="ewwfG6E6U46UfBEFojld-57" value="" style="endArrow=none;dashed=1;html=1;rounded=0;exitX=1;exitY=0.5;exitDx=0;exitDy=0;entryX=0;entryY=0.5;entryDx=0;entryDy=0;" edge="1" parent="WIyWlLk6GJQsqaUBKTNV-1" source="ewwfG6E6U46UfBEFojld-7" target="ewwfG6E6U46UfBEFojld-39">
          <mxGeometry width="50" height="50" relative="1" as="geometry">
            <mxPoint x="360" y="500" as="sourcePoint" />
            <mxPoint x="410" y="450" as="targetPoint" />
          </mxGeometry>
        </mxCell>
        <mxCell id="ewwfG6E6U46UfBEFojld-58" value="" style="endArrow=none;dashed=1;html=1;rounded=0;exitX=1;exitY=0.5;exitDx=0;exitDy=0;entryX=0;entryY=0.5;entryDx=0;entryDy=0;" edge="1" parent="WIyWlLk6GJQsqaUBKTNV-1" source="ewwfG6E6U46UfBEFojld-7" target="ewwfG6E6U46UfBEFojld-49">
          <mxGeometry width="50" height="50" relative="1" as="geometry">
            <mxPoint x="290" y="640" as="sourcePoint" />
            <mxPoint x="440" y="490" as="targetPoint" />
          </mxGeometry>
        </mxCell>
        <mxCell id="ewwfG6E6U46UfBEFojld-59" value="" style="endArrow=none;dashed=1;html=1;rounded=0;entryX=0;entryY=0.5;entryDx=0;entryDy=0;exitX=1;exitY=0;exitDx=0;exitDy=0;" edge="1" parent="WIyWlLk6GJQsqaUBKTNV-1" source="ewwfG6E6U46UfBEFojld-39" target="ewwfG6E6U46UfBEFojld-24">
          <mxGeometry width="50" height="50" relative="1" as="geometry">
            <mxPoint x="535" y="140" as="sourcePoint" />
            <mxPoint x="585" y="90" as="targetPoint" />
          </mxGeometry>
        </mxCell>
        <mxCell id="ewwfG6E6U46UfBEFojld-61" value="" style="endArrow=none;dashed=1;html=1;rounded=0;exitX=1;exitY=0.5;exitDx=0;exitDy=0;entryX=0;entryY=0.5;entryDx=0;entryDy=0;" edge="1" parent="WIyWlLk6GJQsqaUBKTNV-1" source="ewwfG6E6U46UfBEFojld-30" target="ewwfG6E6U46UfBEFojld-42">
          <mxGeometry width="50" height="50" relative="1" as="geometry">
            <mxPoint x="400" y="690" as="sourcePoint" />
            <mxPoint x="480" y="640" as="targetPoint" />
          </mxGeometry>
        </mxCell>
        <mxCell id="ewwfG6E6U46UfBEFojld-62" value="" style="endArrow=none;dashed=1;html=1;rounded=0;exitX=1;exitY=0.5;exitDx=0;exitDy=0;entryX=0;entryY=0.5;entryDx=0;entryDy=0;" edge="1" parent="WIyWlLk6GJQsqaUBKTNV-1" source="ewwfG6E6U46UfBEFojld-5" target="ewwfG6E6U46UfBEFojld-40">
          <mxGeometry width="50" height="50" relative="1" as="geometry">
            <mxPoint x="410" y="700" as="sourcePoint" />
            <mxPoint x="460" y="650" as="targetPoint" />
          </mxGeometry>
        </mxCell>
        <mxCell id="ewwfG6E6U46UfBEFojld-63" value="" style="curved=1;endArrow=classic;html=1;rounded=0;exitX=1;exitY=0.5;exitDx=0;exitDy=0;entryX=1;entryY=0.5;entryDx=0;entryDy=0;" edge="1" parent="WIyWlLk6GJQsqaUBKTNV-1" source="ewwfG6E6U46UfBEFojld-4" target="ewwfG6E6U46UfBEFojld-31">
          <mxGeometry width="50" height="50" relative="1" as="geometry">
            <mxPoint x="350" y="460" as="sourcePoint" />
            <mxPoint x="350" y="410" as="targetPoint" />
            <Array as="points">
              <mxPoint x="390" y="570" />
            </Array>
          </mxGeometry>
        </mxCell>
        <mxCell id="ewwfG6E6U46UfBEFojld-64" value="" style="curved=1;endArrow=classic;html=1;rounded=0;exitX=1;exitY=0.5;exitDx=0;exitDy=0;entryX=1;entryY=0.5;entryDx=0;entryDy=0;" edge="1" parent="WIyWlLk6GJQsqaUBKTNV-1" source="ewwfG6E6U46UfBEFojld-6" target="ewwfG6E6U46UfBEFojld-31">
          <mxGeometry width="50" height="50" relative="1" as="geometry">
            <mxPoint x="360" y="470" as="sourcePoint" />
            <mxPoint x="360" y="420" as="targetPoint" />
            <Array as="points">
              <mxPoint x="390" y="620" />
            </Array>
          </mxGeometry>
        </mxCell>
        <mxCell id="ewwfG6E6U46UfBEFojld-65" value="" style="curved=1;endArrow=classic;html=1;rounded=0;exitX=1;exitY=0.5;exitDx=0;exitDy=0;entryX=1;entryY=0.5;entryDx=0;entryDy=0;" edge="1" parent="WIyWlLk6GJQsqaUBKTNV-1" source="ewwfG6E6U46UfBEFojld-5" target="ewwfG6E6U46UfBEFojld-31">
          <mxGeometry width="50" height="50" relative="1" as="geometry">
            <mxPoint x="370" y="480" as="sourcePoint" />
            <mxPoint x="370" y="430" as="targetPoint" />
            <Array as="points">
              <mxPoint x="400" y="670" />
            </Array>
          </mxGeometry>
        </mxCell>
        <mxCell id="ewwfG6E6U46UfBEFojld-66" value="" style="curved=1;endArrow=classic;html=1;rounded=0;exitX=1;exitY=0.5;exitDx=0;exitDy=0;entryX=1;entryY=0.5;entryDx=0;entryDy=0;" edge="1" parent="WIyWlLk6GJQsqaUBKTNV-1" source="ewwfG6E6U46UfBEFojld-5" target="ewwfG6E6U46UfBEFojld-3">
          <mxGeometry width="50" height="50" relative="1" as="geometry">
            <mxPoint x="380" y="490" as="sourcePoint" />
            <mxPoint x="380" y="440" as="targetPoint" />
            <Array as="points">
              <mxPoint x="390" y="390" />
            </Array>
          </mxGeometry>
        </mxCell>
        <mxCell id="ewwfG6E6U46UfBEFojld-67" value="" style="curved=1;endArrow=classic;html=1;rounded=0;exitX=1;exitY=0.5;exitDx=0;exitDy=0;entryX=1;entryY=0.5;entryDx=0;entryDy=0;" edge="1" parent="WIyWlLk6GJQsqaUBKTNV-1" source="ewwfG6E6U46UfBEFojld-5" target="ewwfG6E6U46UfBEFojld-30">
          <mxGeometry width="50" height="50" relative="1" as="geometry">
            <mxPoint x="390" y="500" as="sourcePoint" />
            <mxPoint x="390" y="450" as="targetPoint" />
            <Array as="points">
              <mxPoint x="350" y="600" />
            </Array>
          </mxGeometry>
        </mxCell>
        <mxCell id="ewwfG6E6U46UfBEFojld-68" value="" style="endArrow=none;dashed=1;html=1;rounded=0;exitX=1;exitY=0;exitDx=0;exitDy=0;entryX=0;entryY=0.5;entryDx=0;entryDy=0;" edge="1" parent="WIyWlLk6GJQsqaUBKTNV-1" source="ewwfG6E6U46UfBEFojld-39" target="ewwfG6E6U46UfBEFojld-25">
          <mxGeometry width="50" height="50" relative="1" as="geometry">
            <mxPoint x="630" y="420" as="sourcePoint" />
            <mxPoint x="600" y="180" as="targetPoint" />
          </mxGeometry>
        </mxCell>
        <mxCell id="ewwfG6E6U46UfBEFojld-69" value="" style="endArrow=none;dashed=1;html=1;rounded=0;exitX=1;exitY=0;exitDx=0;exitDy=0;entryX=0;entryY=0.5;entryDx=0;entryDy=0;" edge="1" parent="WIyWlLk6GJQsqaUBKTNV-1" source="ewwfG6E6U46UfBEFojld-39" target="ewwfG6E6U46UfBEFojld-26">
          <mxGeometry width="50" height="50" relative="1" as="geometry">
            <mxPoint x="630" y="420" as="sourcePoint" />
            <mxPoint x="660" y="190" as="targetPoint" />
          </mxGeometry>
        </mxCell>
        <mxCell id="ewwfG6E6U46UfBEFojld-70" value="" style="endArrow=none;dashed=1;html=1;rounded=0;exitX=1;exitY=0.5;exitDx=0;exitDy=0;entryX=0;entryY=0.5;entryDx=0;entryDy=0;" edge="1" parent="WIyWlLk6GJQsqaUBKTNV-1" source="ewwfG6E6U46UfBEFojld-31" target="ewwfG6E6U46UfBEFojld-39">
          <mxGeometry width="50" height="50" relative="1" as="geometry">
            <mxPoint x="399" y="620" as="sourcePoint" />
            <mxPoint x="449" y="570" as="targetPoint" />
          </mxGeometry>
        </mxCell>
        <mxCell id="ewwfG6E6U46UfBEFojld-71" value="" style="endArrow=none;dashed=1;html=1;rounded=0;exitX=1;exitY=0.5;exitDx=0;exitDy=0;entryX=0;entryY=0.5;entryDx=0;entryDy=0;" edge="1" parent="WIyWlLk6GJQsqaUBKTNV-1" source="ewwfG6E6U46UfBEFojld-31" target="ewwfG6E6U46UfBEFojld-52">
          <mxGeometry width="50" height="50" relative="1" as="geometry">
            <mxPoint x="340" y="790" as="sourcePoint" />
            <mxPoint x="390" y="740" as="targetPoint" />
          </mxGeometry>
        </mxCell>
        <mxCell id="ewwfG6E6U46UfBEFojld-72" value="" style="endArrow=none;dashed=1;html=1;rounded=0;exitX=1;exitY=0.5;exitDx=0;exitDy=0;entryX=0;entryY=0.5;entryDx=0;entryDy=0;" edge="1" parent="WIyWlLk6GJQsqaUBKTNV-1" source="ewwfG6E6U46UfBEFojld-30" target="ewwfG6E6U46UfBEFojld-52">
          <mxGeometry width="50" height="50" relative="1" as="geometry">
            <mxPoint x="290" y="710" as="sourcePoint" />
            <mxPoint x="469" y="590" as="targetPoint" />
          </mxGeometry>
        </mxCell>
        <mxCell id="ewwfG6E6U46UfBEFojld-73" value="" style="endArrow=none;dashed=1;html=1;rounded=0;exitX=1;exitY=0.5;exitDx=0;exitDy=0;entryX=0;entryY=0.5;entryDx=0;entryDy=0;" edge="1" parent="WIyWlLk6GJQsqaUBKTNV-1" source="ewwfG6E6U46UfBEFojld-31" target="ewwfG6E6U46UfBEFojld-42">
          <mxGeometry width="50" height="50" relative="1" as="geometry">
            <mxPoint x="280" y="800" as="sourcePoint" />
            <mxPoint x="510" y="590" as="targetPoint" />
          </mxGeometry>
        </mxCell>
        <mxCell id="ewwfG6E6U46UfBEFojld-74" value="" style="endArrow=none;dashed=1;html=1;rounded=0;exitX=1;exitY=0.5;exitDx=0;exitDy=0;entryX=0;entryY=0.5;entryDx=0;entryDy=0;" edge="1" parent="WIyWlLk6GJQsqaUBKTNV-1" source="ewwfG6E6U46UfBEFojld-6" target="ewwfG6E6U46UfBEFojld-49">
          <mxGeometry width="50" height="50" relative="1" as="geometry">
            <mxPoint x="460" y="230" as="sourcePoint" />
            <mxPoint x="510" y="180" as="targetPoint" />
          </mxGeometry>
        </mxCell>
        <mxCell id="ewwfG6E6U46UfBEFojld-75" value="" style="endArrow=none;dashed=1;html=1;rounded=0;exitX=1;exitY=0.5;exitDx=0;exitDy=0;entryX=0;entryY=0.5;entryDx=0;entryDy=0;" edge="1" parent="WIyWlLk6GJQsqaUBKTNV-1" source="ewwfG6E6U46UfBEFojld-6" target="ewwfG6E6U46UfBEFojld-52">
          <mxGeometry width="50" height="50" relative="1" as="geometry">
            <mxPoint x="470" y="240" as="sourcePoint" />
            <mxPoint x="520" y="190" as="targetPoint" />
          </mxGeometry>
        </mxCell>
        <mxCell id="ewwfG6E6U46UfBEFojld-77" value="" style="curved=1;endArrow=classic;html=1;rounded=0;exitX=1;exitY=0.5;exitDx=0;exitDy=0;entryX=1;entryY=0.5;entryDx=0;entryDy=0;" edge="1" parent="WIyWlLk6GJQsqaUBKTNV-1" source="ewwfG6E6U46UfBEFojld-3" target="ewwfG6E6U46UfBEFojld-6">
          <mxGeometry width="50" height="50" relative="1" as="geometry">
            <mxPoint x="420" y="240" as="sourcePoint" />
            <mxPoint x="420" y="190" as="targetPoint" />
            <Array as="points">
              <mxPoint x="350" y="360" />
            </Array>
          </mxGeometry>
        </mxCell>
        <mxCell id="ewwfG6E6U46UfBEFojld-78" value="" style="endArrow=none;dashed=1;html=1;rounded=0;exitX=1;exitY=0.5;exitDx=0;exitDy=0;entryX=0;entryY=0.5;entryDx=0;entryDy=0;" edge="1" parent="WIyWlLk6GJQsqaUBKTNV-1" source="ewwfG6E6U46UfBEFojld-4" target="ewwfG6E6U46UfBEFojld-49">
          <mxGeometry width="50" height="50" relative="1" as="geometry">
            <mxPoint x="460" y="230" as="sourcePoint" />
            <mxPoint x="510" y="180" as="targetPoint" />
          </mxGeometry>
        </mxCell>
        <mxCell id="ewwfG6E6U46UfBEFojld-79" value="" style="endArrow=none;dashed=1;html=1;rounded=0;exitX=1;exitY=0.5;exitDx=0;exitDy=0;entryX=0;entryY=0.5;entryDx=0;entryDy=0;" edge="1" parent="WIyWlLk6GJQsqaUBKTNV-1" source="ewwfG6E6U46UfBEFojld-4" target="ewwfG6E6U46UfBEFojld-40">
          <mxGeometry width="50" height="50" relative="1" as="geometry">
            <mxPoint x="470" y="240" as="sourcePoint" />
            <mxPoint x="520" y="190" as="targetPoint" />
          </mxGeometry>
        </mxCell>
        <mxCell id="ewwfG6E6U46UfBEFojld-80" value="" style="endArrow=none;dashed=1;html=1;rounded=0;exitX=1;exitY=0.5;exitDx=0;exitDy=0;entryX=0;entryY=0.5;entryDx=0;entryDy=0;" edge="1" parent="WIyWlLk6GJQsqaUBKTNV-1" source="ewwfG6E6U46UfBEFojld-4" target="ewwfG6E6U46UfBEFojld-52">
          <mxGeometry width="50" height="50" relative="1" as="geometry">
            <mxPoint x="480" y="250" as="sourcePoint" />
            <mxPoint x="530" y="200" as="targetPoint" />
          </mxGeometry>
        </mxCell>
        <mxCell id="ewwfG6E6U46UfBEFojld-81" value="" style="endArrow=none;dashed=1;html=1;rounded=0;exitX=1;exitY=0.5;exitDx=0;exitDy=0;entryX=0;entryY=0.5;entryDx=0;entryDy=0;" edge="1" parent="WIyWlLk6GJQsqaUBKTNV-1" source="ewwfG6E6U46UfBEFojld-2" target="ewwfG6E6U46UfBEFojld-39">
          <mxGeometry width="50" height="50" relative="1" as="geometry">
            <mxPoint x="460" y="230" as="sourcePoint" />
            <mxPoint x="510" y="180" as="targetPoint" />
          </mxGeometry>
        </mxCell>
        <mxCell id="ewwfG6E6U46UfBEFojld-82" value="" style="endArrow=none;dashed=1;html=1;rounded=0;exitX=1;exitY=0.5;exitDx=0;exitDy=0;entryX=0;entryY=0.5;entryDx=0;entryDy=0;" edge="1" parent="WIyWlLk6GJQsqaUBKTNV-1" source="ewwfG6E6U46UfBEFojld-3" target="ewwfG6E6U46UfBEFojld-52">
          <mxGeometry width="50" height="50" relative="1" as="geometry">
            <mxPoint x="470" y="240" as="sourcePoint" />
            <mxPoint x="520" y="190" as="targetPoint" />
          </mxGeometry>
        </mxCell>
        <mxCell id="ewwfG6E6U46UfBEFojld-83" value="" style="shape=flexArrow;endArrow=classic;html=1;rounded=0;exitX=1;exitY=0;exitDx=0;exitDy=0;entryX=1;entryY=1;entryDx=0;entryDy=0;" edge="1" parent="WIyWlLk6GJQsqaUBKTNV-1" source="ewwfG6E6U46UfBEFojld-3" target="ewwfG6E6U46UfBEFojld-2">
          <mxGeometry width="50" height="50" relative="1" as="geometry">
            <mxPoint x="340" y="390" as="sourcePoint" />
            <mxPoint x="390" y="340" as="targetPoint" />
          </mxGeometry>
        </mxCell>
        <mxCell id="ewwfG6E6U46UfBEFojld-84" value="" style="endArrow=none;dashed=1;html=1;rounded=0;exitX=1;exitY=0.5;exitDx=0;exitDy=0;entryX=0;entryY=0.5;entryDx=0;entryDy=0;" edge="1" parent="WIyWlLk6GJQsqaUBKTNV-1" source="ewwfG6E6U46UfBEFojld-2" target="ewwfG6E6U46UfBEFojld-42">
          <mxGeometry width="50" height="50" relative="1" as="geometry">
            <mxPoint x="460" y="230" as="sourcePoint" />
            <mxPoint x="510" y="180" as="targetPoint" />
          </mxGeometry>
        </mxCell>
        <mxCell id="ewwfG6E6U46UfBEFojld-85" value="" style="endArrow=none;dashed=1;html=1;rounded=0;exitX=1;exitY=0.5;exitDx=0;exitDy=0;entryX=0;entryY=0.5;entryDx=0;entryDy=0;" edge="1" parent="WIyWlLk6GJQsqaUBKTNV-1" source="ewwfG6E6U46UfBEFojld-3" target="ewwfG6E6U46UfBEFojld-42">
          <mxGeometry width="50" height="50" relative="1" as="geometry">
            <mxPoint x="460" y="230" as="sourcePoint" />
            <mxPoint x="510" y="180" as="targetPoint" />
          </mxGeometry>
        </mxCell>
        <mxCell id="ewwfG6E6U46UfBEFojld-86" value="&#xa;&lt;div style=&quot;color: #d4d4d4;background-color: #1e1e1e;font-family: &#39;Fira Code&#39;, Consolas, &#39;Courier New&#39;, monospace;font-weight: normal;font-size: 13px;line-height: 18px;white-space: pre;&quot;&gt;&lt;div&gt;&lt;span style=&quot;color: #4ec9b0;&quot;&gt;Interpreter&lt;/span&gt;&lt;/div&gt;&lt;/div&gt;&#xa;&#xa;" style="rounded=1;whiteSpace=wrap;html=1;" vertex="1" parent="WIyWlLk6GJQsqaUBKTNV-1">
          <mxGeometry x="500" y="270" width="120" height="60" as="geometry" />
        </mxCell>
        <mxCell id="ewwfG6E6U46UfBEFojld-89" value="&lt;br&gt;&lt;div style=&quot;color: #d4d4d4;background-color: #1e1e1e;font-family: &#39;Fira Code&#39;, Consolas, &#39;Courier New&#39;, monospace;font-weight: normal;font-size: 13px;line-height: 18px;white-space: pre;&quot;&gt;&lt;div&gt;&lt;div style=&quot;color: #d4d4d4;background-color: #1e1e1e;font-family: &#39;Fira Code&#39;, Consolas, &#39;Courier New&#39;, monospace;font-weight: normal;font-size: 13px;line-height: 18px;white-space: pre;&quot;&gt;&lt;div&gt;&lt;span style=&quot;color: #4ec9b0;&quot;&gt;MemoryPointer&lt;/span&gt;&lt;/div&gt;&lt;/div&gt;&lt;/div&gt;&lt;/div&gt;" style="rounded=1;whiteSpace=wrap;html=1;" vertex="1" parent="WIyWlLk6GJQsqaUBKTNV-1">
          <mxGeometry x="294" y="70" width="120" height="60" as="geometry" />
        </mxCell>
        <mxCell id="ewwfG6E6U46UfBEFojld-93" value="" style="endArrow=none;dashed=1;html=1;rounded=0;entryX=1;entryY=0.5;entryDx=0;entryDy=0;exitX=0;exitY=0.5;exitDx=0;exitDy=0;" edge="1" parent="WIyWlLk6GJQsqaUBKTNV-1" source="ewwfG6E6U46UfBEFojld-86" target="ewwfG6E6U46UfBEFojld-3">
          <mxGeometry width="50" height="50" relative="1" as="geometry">
            <mxPoint x="340" y="450" as="sourcePoint" />
            <mxPoint x="390" y="400" as="targetPoint" />
          </mxGeometry>
        </mxCell>
      </root>
    </mxGraphModel>
  </diagram>
</mxfile>
